# xmcd
#
# Track frame offsets:
#	150
#	11180
#	29203
#	42300
#	57691
#	69071
#	83445
#	101500
#	117845
#	133549
#	148271
#
# Disc length: 2119 seconds
#
# Revision: 3
# Processed by: cddbd v1.4PL0 Copyright (c) Steve Scherf et al.
# Submitted via: CDmax 2.0
#
DISCID=9a08450b
DTITLE=Bobby Shehorn - Bigger Than Dallas
DYEAR=1997
DGENRE=Blues
TTITLE0=When It Rocks
TTITLE1=I'm Goin' In the Valley
TTITLE2=I Can't Hack It
TTITLE3=Just My Baby and Me
TTITLE4=Bigger Than Dallas
TTITLE5=Still Called the Blues
TTITLE6=Just Because
TTITLE7=My Baby's Garage
TTITLE8=She's a Screamer
TTITLE9=Nothin' Like Love
TTITLE10=I'll Win
EXTD=LABEL =La Texanne Music\nID =LTXN-6959\nUPC =none\nCOPYRIGHT =1997
EXTT0=
EXTT1=
EXTT2=
EXTT3=
EXTT4=
EXTT5=
EXTT6=
EXTT7=
EXTT8=
EXTT9=
EXTT10=
PLAYORDER=
